<svg xmlns="http://www.w3.org/2000/svg" viewBox="0 0 544.1 164.6"><defs><style>.a{fill:#fff;}</style></defs><path class="a" d="M88,54.2l7.4,1.6L82.8,103.9l-7.5-1.7Z"/><path class="a" d="M120.9,67.5l-7.5,1.2,5.4,5.5-5.9,4.3-3.6-6.8-3.5,6.8-5.9-4.3,5.4-5.4-7.6-1.3,2.2-6.8,6.9,3.3-1.1-7.6H113l-1.1,7.7,6.8-3.4Z"/><path class="a" d="M157.7,69l-1.4,8.2-2.5-.4a4.6,4.6,0,0,0-3.9,1.8,14.4,14.4,0,0,0-2,5.2V97.9h-8.5V69.4h7.4l.7,5.6a10.2,10.2,0,0,1,2.9-4.7,6.7,6.7,0,0,1,4.4-1.7A12.7,12.7,0,0,1,157.7,69Z"/><path class="a" d="M182.1,92a2.5,2.5,0,0,0,1.5,1.1l-1.8,5.6a12.2,12.2,0,0,1-4.3-1.2,6.5,6.5,0,0,1-2.6-3c-1.8,2.9-4.7,4.3-8.5,4.3a9.4,9.4,0,0,1-6.8-2.4,8.7,8.7,0,0,1-2.5-6.5,8.1,8.1,0,0,1,3.4-7.1c2.3-1.6,5.6-2.5,9.9-2.5h2.9V79.1c0-1.7-.3-2.8-1-3.5a6.2,6.2,0,0,0-3.8-.9,16.1,16.1,0,0,0-3.4.4,34.5,34.5,0,0,0-4,1.1l-2-5.6a26.4,26.4,0,0,1,5.5-1.5,25.2,25.2,0,0,1,5.2-.6c4.1,0,7.1.9,9,2.6s2.8,4.2,2.8,7.5V89.7A4.6,4.6,0,0,0,182.1,92Zm-8.8-2V85h-2.1a7.4,7.4,0,0,0-4.3,1,3.7,3.7,0,0,0-1.4,3.2,3.6,3.6,0,0,0,.9,2.6,3,3,0,0,0,2.4,1A4.8,4.8,0,0,0,173.3,90Z"/><path class="a" d="M198.8,64.3a4.6,4.6,0,0,0-.8,2.9v2.2h6.7l-.9,5.9H198V97.9h-8.5V75.3h-4.3V69.4h4.3V66.9a9.7,9.7,0,0,1,2.8-7q2.8-2.7,8.1-2.7a17.2,17.2,0,0,1,7.8,1.8l-2.3,5.6a8.8,8.8,0,0,0-4.5-1.1A3.7,3.7,0,0,0,198.8,64.3Z"/><path class="a" d="M229.3,92a2.5,2.5,0,0,0,1.5,1.1L229,98.7a11.6,11.6,0,0,1-4.3-1.2,6,6,0,0,1-2.6-3c-1.8,2.9-4.7,4.3-8.5,4.3a9.4,9.4,0,0,1-6.8-2.4,8.7,8.7,0,0,1-2.5-6.5,8.1,8.1,0,0,1,3.4-7.1c2.3-1.6,5.6-2.5,9.9-2.5h2.9V79.1c0-1.7-.3-2.8-1-3.5a6.2,6.2,0,0,0-3.8-.9,15.5,15.5,0,0,0-3.4.4,35.9,35.9,0,0,0-4.1,1.1l-1.9-5.6a26.4,26.4,0,0,1,5.5-1.5,25.2,25.2,0,0,1,5.2-.6c4.1,0,7.1.9,9,2.6s2.8,4.2,2.8,7.5V89.7A4.6,4.6,0,0,0,229.3,92Zm-8.8-2V85h-2.1a7.4,7.4,0,0,0-4.3,1,3.7,3.7,0,0,0-1.4,3.2,3.6,3.6,0,0,0,.9,2.6,3,3,0,0,0,2.4,1A4.8,4.8,0,0,0,220.5,90Z"/><path class="a" d="M272.8,69.4l-8.9,28.5H253.8l-9.1-28.5h9.2l5,22.1,5.3-22.1Z"/><path class="a" d="M283.6,55.8a4.5,4.5,0,0,1,1.4,3.5,4.4,4.4,0,0,1-1.4,3.4,5.3,5.3,0,0,1-7.2,0,4.8,4.8,0,0,1-1.4-3.4,4.8,4.8,0,0,1,1.4-3.5,5.3,5.3,0,0,1,7.2,0Zm.7,13.6V97.9h-8.5V69.4Z"/><path class="a" d="M292.7,96.7a8.5,8.5,0,0,1-2-6V58.1l8.4-.9V90.4c0,1.1.5,1.7,1.5,1.7l1.4-.2,1.6,6a13.6,13.6,0,0,1-5.1.9A7.8,7.8,0,0,1,292.7,96.7Z"/><path class="a" d="M308.7,96.7a8.1,8.1,0,0,1-2.1-6V58.1l8.5-.9V90.4c0,1.1.4,1.7,1.4,1.7l1.4-.2,1.7,6a14.6,14.6,0,0,1-5.2.9A7.5,7.5,0,0,1,308.7,96.7Z"/><path class="a" d="M345.6,92a2.5,2.5,0,0,0,1.5,1.1l-1.8,5.6a12.2,12.2,0,0,1-4.3-1.2,6.5,6.5,0,0,1-2.6-3c-1.8,2.9-4.7,4.3-8.5,4.3a9.4,9.4,0,0,1-6.8-2.4,8.7,8.7,0,0,1-2.5-6.5,8.1,8.1,0,0,1,3.4-7.1c2.3-1.6,5.6-2.5,9.9-2.5h2.9V79.1c0-1.7-.3-2.8-1-3.5a6.2,6.2,0,0,0-3.8-.9,16.1,16.1,0,0,0-3.4.4,29.8,29.8,0,0,0-4,1.1l-2-5.6a26.4,26.4,0,0,1,5.5-1.5,25.2,25.2,0,0,1,5.2-.6c4.1,0,7.1.9,9,2.6s2.8,4.2,2.8,7.5V89.7A4.6,4.6,0,0,0,345.6,92Zm-8.8-2V85h-2.1a7.4,7.4,0,0,0-4.3,1,3.7,3.7,0,0,0-1.4,3.2,3.6,3.6,0,0,0,.9,2.6,3,3,0,0,0,2.4,1A4.8,4.8,0,0,0,336.8,90Z"/><path class="a" d="M370.2,69l-1.4,8.2-2.5-.4a4.6,4.6,0,0,0-3.9,1.8,14.4,14.4,0,0,0-2,5.2V97.9h-8.5V69.4h7.4L360,75a10.2,10.2,0,0,1,2.9-4.7,6.7,6.7,0,0,1,4.4-1.7A12.7,12.7,0,0,1,370.2,69Z"/><path class="a" d="M391.7,69l-1.3,8.2-2.6-.4a4.6,4.6,0,0,0-3.9,1.8,14.4,14.4,0,0,0-2,5.2V97.9h-8.5V69.4h7.4l.7,5.6a10.2,10.2,0,0,1,2.9-4.7,6.8,6.8,0,0,1,4.5-1.7A12.6,12.6,0,0,1,391.7,69Z"/><path class="a" d="M416.1,92a2.5,2.5,0,0,0,1.5,1.1l-1.8,5.6a12.2,12.2,0,0,1-4.3-1.2,5.8,5.8,0,0,1-2.5-3c-1.9,2.9-4.8,4.3-8.6,4.3a9.6,9.6,0,0,1-6.8-2.4,8.7,8.7,0,0,1-2.5-6.5,8.1,8.1,0,0,1,3.4-7.1c2.3-1.6,5.6-2.5,10-2.5h2.9V79.1a4.7,4.7,0,0,0-1.1-3.5,6,6,0,0,0-3.8-.9,16.1,16.1,0,0,0-3.4.4,34.5,34.5,0,0,0-4,1.1l-2-5.6a28.1,28.1,0,0,1,5.5-1.5,26.1,26.1,0,0,1,5.3-.6c4,0,7,.9,8.9,2.6s2.9,4.2,2.9,7.5V89.7A4.7,4.7,0,0,0,416.1,92Zm-8.7-2V85h-2.1a7.5,7.5,0,0,0-4.4,1,3.7,3.7,0,0,0-1.4,3.2,3.6,3.6,0,0,0,.9,2.6,3,3,0,0,0,2.4,1A5,5,0,0,0,407.4,90Z"/><path class="a" d="M437.6,69.4a18.4,18.4,0,0,1,4.8,2.6l-3.1,4.8a13.1,13.1,0,0,0-7.1-2.2,4.4,4.4,0,0,0-2.5.6,1.6,1.6,0,0,0-.9,1.5,2.1,2.1,0,0,0,.4,1.4,6.4,6.4,0,0,0,1.6,1l3.8,1.3a16.7,16.7,0,0,1,6.7,3.3,7.7,7.7,0,0,1,2.1,5.7,8.2,8.2,0,0,1-1.6,5.1,9.8,9.8,0,0,1-4.6,3.2,16.6,16.6,0,0,1-6.4,1.1,18.5,18.5,0,0,1-6.7-1.1,15,15,0,0,1-5.2-3.1L423,90a12.5,12.5,0,0,0,7.6,2.8,6,6,0,0,0,3-.7,2.4,2.4,0,0,0,1.1-2,2.5,2.5,0,0,0-.4-1.6,3.8,3.8,0,0,0-1.7-1.1,24.7,24.7,0,0,0-3.9-1.3,13.5,13.5,0,0,1-6.3-3.4,7.7,7.7,0,0,1-2.1-5.5,7,7,0,0,1,1.4-4.4,9.5,9.5,0,0,1,4.1-3.1,14.4,14.4,0,0,1,6.1-1.2A17.5,17.5,0,0,1,437.6,69.4Z"/><path class="a" d="M470.4,72.5c2.4,2.7,3.7,6.4,3.7,11.2a18.5,18.5,0,0,1-1.7,8,13.9,13.9,0,0,1-4.9,5.3,14.2,14.2,0,0,1-7.4,1.8c-4.3,0-7.7-1.3-10.2-4s-3.7-6.4-3.7-11.1a16.9,16.9,0,0,1,1.7-8,12.3,12.3,0,0,1,4.8-5.3,14.8,14.8,0,0,1,7.4-1.9C464.5,68.5,467.9,69.9,470.4,72.5Zm-14.1,4.4c-.9,1.5-1.3,3.7-1.3,6.8s.4,5.3,1.2,6.8a4.4,4.4,0,0,0,3.9,2.1,4.3,4.3,0,0,0,3.9-2.2,14.1,14.1,0,0,0,1.3-6.7,14.3,14.3,0,0,0-1.3-6.8,4.1,4.1,0,0,0-3.9-2.1A4.1,4.1,0,0,0,456.3,76.9Z"/></svg>